# xmcd
#
# Track frame offsets:
#	150
#	15839
#	30347
#	48087
#	66589
#	83518
#	99055
#	115569
#	128345
#	146039
#	167831
#	182181
#	199152
#	216391
#	235687
#	252255
#	267459
#	283939
#	303774
#	320838
#
# Disc length: 4450 seconds
#
# Revision: 1
# Processed by: cddbd v1.5.2PL0 Copyright (c) Steve Scherf et al.
# Submitted via: audiograbber 1.83.01
#
DISCID=0f116014
DTITLE=Various Artist - Hc095
DYEAR=2004
DGENRE=Country
TTITLE0=Green, Pat - Guy Like Me
TTITLE1=Walker, Doc - Get Up
TTITLE2=Beverley, Mahood - The First Day
TTITLE3=Young, Craig Ft. Terri Clark - You Can't Take It With You
TTITLE4=Lawrence, Tracy - Paint Me A Birmingham
TTITLE5=Tuftin, Dean - In Her Eyes
TTITLE6=Matthews, Jake - Try Again Tomorrow
TTITLE7=Fox, Steve - Land Of The Loved
TTITLE8=Keith, Toby - Whiskey Girl
TTITLE9=Urban, Keith - You'll Think Of Me
TTITLE10=Currington, Billy - I Got A Feelin'
TTITLE11=Grand, Gil - Run
TTITLE12=Black, Clint - Spend My Time
TTITLE13=Cross Canadian Ragwood - Constantly 
TTITLE14=Lovett, Lyle - My Baby Don't Tolerate
TTITLE15=Isaacs, Sonya - No Regrets Yet
TTITLE16=Ennis Sisters - Can't Be The Same
TTITLE17=Crowell, Rodney - Earthbound
TTITLE18=Tippe, Rick - Back To The Country
TTITLE19=Twain, Shania - Up
EXTD=
EXTT0=
EXTT1=
EXTT2=
EXTT3=
EXTT4=
EXTT5=
EXTT6=
EXTT7=
EXTT8=
EXTT9=
EXTT10=
EXTT11=
EXTT12=
EXTT13=
EXTT14=
EXTT15=
EXTT16=
EXTT17=
EXTT18=
EXTT19=
PLAYORDER=
